<svg viewBox="0 0 59 53" fill="none" xmlns="http://www.w3.org/2000/svg">
<path d="M58.9923 52.0898V53.0001H-0.00769043V52.0898H58.9923ZM57.6866 37.5639C58.8848 38.5306 57.6149 40.0599 56.5579 39.2864C55.2538 38.4605 52.2922 38.0735 51.9222 39.902C51.4464 42.785 59.1142 41.1331 58.9912 45.8093C58.8671 50.2745 52.3805 50.38 49.9477 48.3759C49.3659 47.9011 49.3836 47.1271 49.7006 46.6528C50.1589 46.1957 50.67 46.0378 51.2694 46.5297C52.7146 47.5146 56.4349 48.2522 56.699 45.7563C56.4697 43.1543 49.1371 44.7189 49.683 39.7259C50.0888 36.3162 55.2538 35.7001 57.6866 37.5639ZM19.2429 36.7728C20.7763 36.7728 21.9927 37.2293 23.2791 38.3374C23.7555 38.7768 23.8085 39.5503 23.3326 40.0428C22.8567 40.4645 22.1339 40.4121 21.7104 39.9898C20.988 39.234 20.2475 39.0231 19.2429 39.0231C16.5283 39.0231 15.2231 40.9393 15.2231 43.0842C15.2231 45.2644 16.5107 47.2684 19.2429 47.2684C20.2475 47.2684 21.1816 46.8637 21.9927 46.1433C22.5391 45.7209 23.2973 45.9318 23.6138 46.3542C23.8967 46.7406 24.0373 47.3915 23.4208 48.0066C22.1868 49.1494 20.7057 49.3779 19.2429 49.3779C14.9767 49.3779 13.0556 46.4767 13.0556 43.0842C13.0556 39.6911 15.1889 36.7728 19.2429 36.7728ZM43.1792 37.7041L48.1507 47.5671C48.873 48.9379 46.7402 50.0283 46.106 48.6569L45.3302 47.11H38.8253L38.0677 48.6569C37.7854 49.2548 37.1331 49.3779 36.499 49.2548C35.9343 48.9379 35.582 48.3052 35.9343 47.5671L40.9935 37.7041C41.4699 36.7728 42.7381 36.738 43.1792 37.7041ZM10.5004 36.9312C11.135 36.9312 11.7521 37.5639 11.7521 38.1441V48.0419C11.7521 48.8154 11.2756 49.114 10.8174 49.2548C10.201 49.2548 9.901 49.114 9.3893 48.6398L3.55602 41.2557V48.0419C3.55602 48.8154 3.07961 49.2548 2.44495 49.2548C1.81083 49.2548 1.24675 48.8154 1.24675 48.0419V38.3197C1.24675 37.687 1.38736 37.072 2.30434 37.072C2.93845 37.072 3.07961 37.2293 3.55602 37.687L9.38985 44.9651V38.1441C9.38985 37.5639 9.90155 36.9312 10.5009 36.9312H10.5004ZM33.3091 37.0891C34.9302 37.0891 34.8955 39.3747 33.3091 39.3747H28.2318V42.0115H32.6745C34.2432 42.0115 34.2432 44.3148 32.6745 44.3148H28.2318V46.9515H33.608C35.2126 46.9515 35.3361 49.2548 33.608 49.2548H26.9801C26.3637 49.2548 25.8878 48.78 25.8878 48.165V38.1789C25.8878 37.5462 26.3637 37.0891 26.9801 37.0891H33.3091ZM42.0863 40.4469L39.9182 44.7896H44.0785L42.0863 40.4469ZM19.7336 0.164678C25.3937 -1.23541 32.4837 6.45014 31.6919 17.2014L31.8981 16.619C32.4008 15.2282 32.8251 13.8102 33.1691 12.3718C33.5142 10.9397 33.7442 9.48163 33.7883 8.02303C33.8159 6.57381 33.6444 5.08871 32.9672 3.80898C32.3144 2.53146 31.0522 1.53992 29.564 1.28927C30.3167 1.31135 31.0649 1.55703 31.7216 1.95674C32.3811 2.3559 32.9353 2.93006 33.3527 3.58594C34.182 4.91756 34.4654 6.50038 34.4979 8.02303C34.5426 11.1014 33.7331 14.0739 32.7594 16.9199L32.6767 17.1451C40.2116 9.98514 51.196 9.43968 53.8494 14.4239C56.634 19.6554 48.4699 23.6105 48.4699 23.6105C47.1818 24.3078 45.7548 24.9079 44.3686 25.4098C44.9746 28.1487 43.5349 31.4352 40.7999 33.277H58.9923V34.1868H39.0244C38.5061 34.3789 37.958 34.523 37.3829 34.6108C35.9382 34.8316 34.6347 34.6539 33.5175 34.1874H-0.00769043V33.2764L31.9769 33.277C29.5618 31.3585 28.6029 27.8252 29.945 24.6871C31.5937 20.8319 36.4251 21.4298 36.4251 21.4298C35.5384 20.8236 35.1139 19.9784 35.1778 19.2866C35.2219 18.8019 35.2649 18.5148 35.5726 18.0533C36.3733 16.8531 38.3517 15.6622 39.6254 15.0466C42.0902 13.8558 45.6462 12.8792 48.696 14.2163C51.7452 15.5546 51.5787 17.7861 49.195 20.0204C46.8113 22.2535 42.5743 22.4992 42.5743 22.4992C43.0789 23.0651 44.0306 24.2648 44.2462 24.9516L44.3134 24.9289C50.9253 22.4087 54.7531 17.9909 52.1627 14.4868C50.0469 11.939 46.0807 11.5983 40.6698 13.1784C36.9302 14.2704 34.0193 16.2794 32.5774 17.4167L32.7594 16.9199C32.2506 18.3386 31.6874 19.7371 31.071 21.1124C30.4457 22.4804 29.7945 23.8358 29.0865 25.1608C27.6863 27.8153 26.143 30.3916 24.4635 32.8784C25.815 30.2024 27.1753 27.5408 28.4491 24.8439C29.0766 23.4913 29.7063 22.1409 30.2792 20.7679C30.7662 19.6335 31.2222 18.486 31.6466 17.3267C31.6279 16.1955 31.3792 13.111 29.4631 9.11726C27.0298 4.04527 24.1277 1.32792 20.8121 1.45987C16.4676 1.87614 15.726 7.66694 18.2603 14.2594L18.2878 14.3234C18.944 14.0253 20.4752 13.9303 21.2351 13.9276C21.2351 13.9276 18.5883 10.6189 18.6639 7.35777C18.74 4.09606 20.2949 2.48288 23.3287 3.85204C26.3637 5.22286 28.0096 8.51604 28.7667 11.1401C29.1576 12.4971 29.5894 14.7618 29.2282 16.1569C29.0892 16.6935 28.9034 16.9176 28.572 17.2737C28.0978 17.7833 27.183 18.0323 26.1387 17.7783C26.1387 17.7783 29.811 20.9672 28.0355 24.7644C25.7615 29.6227 18.9677 30.913 15.6615 25.8697C12.9745 21.7705 14.535 16.4136 17.8643 14.5387C17.3129 13.1751 16.8073 11.7148 16.4688 10.2926C16.4688 10.2926 13.9692 1.59071 19.7336 0.164678ZM36.4516 22.1023C35.1541 21.866 33.6047 22.0807 32.4098 22.9315C31.7812 23.3787 31.5882 23.6702 31.2441 24.2239C28.851 28.4186 32.7064 32.9634 36.0193 33.2063C40.4139 33.5287 43.2454 30.5022 43.7565 27.8158C43.8957 27.1009 43.8538 26.3626 43.6347 25.6682C43.1605 25.8305 42.6951 25.9806 42.2451 26.1181C42.7568 28.7907 40.4674 30.8798 38.4697 31.4926C37.5284 31.7808 36.5276 31.8659 35.5307 31.6169C34.3717 31.3287 33.2385 30.5712 32.5256 28.8708C31.1989 25.7057 34.9225 21.1328 39.1181 23.4355C39.1181 23.4355 39.2692 23.504 39.3591 23.5034C39.4479 23.5023 39.6932 23.4703 39.1826 23.1567C38.3498 22.63 37.422 22.2717 36.4516 22.1023ZM39.8592 25.4457C38.3418 23.2594 35.282 24.2339 34.2592 26.0121C33.7558 26.8866 33.6196 27.9405 33.9267 28.7769C34.2432 29.6387 35.0207 30.2747 35.7116 30.5685C36.671 30.9748 37.6316 30.7341 38.1036 30.5778C38.2734 30.5215 38.328 30.4785 38.328 30.4785C38.3037 30.4531 38.0975 30.4669 37.8097 30.4597C37.4915 30.4525 36.9583 30.3736 36.0397 29.8734C34.3568 28.9542 35.3079 27.9041 35.3824 27.8263C36.3247 26.986 38.532 26.6393 38.8893 26.5874C39.2973 26.467 39.7429 26.3345 40.2005 26.1982C40.0627 25.7565 39.8592 25.4457 39.8592 25.4457ZM40.3092 26.6757C38.6632 27.1157 37.5373 27.3349 37.5373 27.3349C37.5373 27.3349 37.3404 27.3829 37.0741 27.4437C35.6267 27.8367 34.8337 28.4302 36.1946 29.3649C37.7628 30.4415 39.2571 29.3097 39.2571 29.3097C40.275 28.5423 40.4305 27.4934 40.3092 26.6757ZM18.161 15.257C17.4965 15.5572 16.9175 16.019 16.4765 16.6002C14.8123 18.7737 14.4435 22.8973 17.619 25.9437C20.0126 28.2403 25.9788 28.0681 27.5128 23.4907C27.6958 22.8652 27.7841 22.5279 27.6986 21.7638C27.5354 20.3074 26.6614 19.0134 25.6187 18.2084C24.8432 17.6005 23.9562 17.1507 23.0078 16.8845C22.4338 16.715 22.5733 16.9182 22.6318 16.9855C22.6908 17.0518 22.843 17.1192 22.843 17.1192C27.3633 18.6959 26.4364 24.5138 23.1881 25.6428C21.4424 26.2495 20.1212 25.9133 19.132 25.2453C18.2807 24.6711 17.6758 23.8706 17.2622 22.9806C16.3855 21.0875 16.4164 17.9931 18.7521 16.5886C18.5484 16.1477 18.3513 15.7038 18.161 15.257ZM38.4498 22.4628L38.5166 22.4849C39.2957 22.7421 41.4528 23.6221 42.1172 25.6223C42.6124 25.4716 43.0739 25.3297 43.4615 25.2066C42.716 23.4869 41.1467 22.6129 41.1467 22.6129C41.1467 22.6129 39.91 22.8603 38.4498 22.4628ZM24.1652 22.4462C24.8082 20.4996 23.4925 17.5779 20.8474 17.9119C20.8474 17.9119 20.4796 17.9683 20.0584 18.1593C20.2624 18.5916 20.4615 19.01 20.644 19.3932C20.8441 19.693 22.0589 21.5634 22.0611 22.8244C22.0522 22.9315 21.9028 24.3387 20.0937 23.7022C19.1067 23.3555 18.692 23.0121 18.4731 22.7802C18.2762 22.5721 18.1489 22.4098 18.1141 22.4076C18.1141 22.4076 18.118 22.4777 18.1897 22.6411C18.3882 23.0966 18.8497 23.9694 19.7943 24.4105C20.4736 24.7274 21.4678 24.8798 22.323 24.5392C23.1523 24.2085 23.8482 23.4041 24.1647 22.4468L24.1652 22.4462ZM19.6294 18.3978C18.9379 18.8538 18.2592 19.6703 18.3667 20.9379C18.3667 20.9379 18.5189 22.8029 20.3694 23.2484C21.9756 23.6348 21.889 22.6494 21.2163 21.3133C21.0829 21.0743 20.9875 20.8965 20.9875 20.8965C20.9875 20.8965 20.3997 19.9138 19.6294 18.3978ZM38.2326 22.3993C38.3054 22.4225 38.3782 22.4429 38.4498 22.4628C38.3125 22.4197 38.2326 22.3993 38.2326 22.3993ZM46.4044 15.6484C44.9839 15.1217 43.0132 15.1405 40.5352 16.3733C40.3036 16.4892 39.9568 16.6267 39.7285 16.8067C39.5014 16.9292 39.3525 17.0386 39.1518 17.1677C37.8119 18.0301 36.6208 19.3126 36.939 20.2892L36.9484 20.3262C37.0658 20.7944 37.2489 20.928 37.5097 21.1322C38.8149 22.1514 40.6985 22.0255 40.6985 22.0255L40.2016 21.5331L39.9976 21.4828C39.9976 21.4828 38.5116 21.2863 38.3897 20.1098C38.2673 18.9322 40.2832 17.5581 41.6077 17.0098C42.7226 16.5489 45.585 16.1099 46.2174 17.6889C46.8499 19.2679 43.5762 20.8413 41.4208 21.4497L41.8983 21.8566C41.8983 21.8566 44.4855 21.3917 46.2075 20.0347C46.6398 19.6935 47.0434 19.2839 47.291 18.8715C47.661 18.2559 47.7432 17.5945 47.6588 17.0882C47.5491 16.4313 46.9183 15.8389 46.4044 15.6484ZM44.1442 19.8337C45.537 18.6606 45.0176 16.6913 42.6041 17.3472C40.1939 18.0019 39.1733 19.0669 39.4754 20.0435C39.5014 20.1264 39.5179 20.3124 39.6276 20.4604C39.7677 20.6508 40.0158 20.8082 40.1619 20.9037C40.2706 20.9755 40.3604 21.0064 40.4321 21.018C40.4878 21.0351 40.7823 21.1113 41.2019 21.0638L41.2057 21.0677C41.2057 21.0677 42.7513 21.0064 44.1442 19.8337ZM24.0174 16.9668L24.1095 17.0247L24.2033 17.0811C24.1867 17.07 24.1206 17.0275 24.0152 16.9651L24.0174 16.9668ZM22.1019 15.0632C22.1019 15.0632 20.4019 14.4819 18.6203 15.077C18.7874 15.4469 18.9898 15.8841 19.207 16.3523C21.2031 15.4839 23.3695 16.5869 24.0152 16.9651C22.7437 16.1464 22.1019 15.0632 22.1019 15.0632ZM23.7892 6.50867C23.3034 6.25416 22.441 6.18183 21.8775 6.53958C21.4435 6.81452 21.004 7.31692 20.7917 8.0026C20.65 8.46194 20.6125 9.035 20.6473 9.58432C20.784 11.7689 22.1647 13.9999 22.1647 13.9999L22.7867 14.0827C21.8019 12.0764 20.7906 8.59499 22.3908 8.01033C23.9921 7.42512 25.5763 9.84435 25.9766 10.9794C26.4519 12.3293 26.7717 14.743 25.8117 15.4381C24.8523 16.1337 23.7131 15.162 23.7131 15.162L23.5388 15.0433L22.8402 15.003C22.8402 15.003 24.0037 16.4859 25.6364 16.7747C25.9617 16.8321 26.1839 16.879 26.6123 16.6532C26.6234 16.6477 26.6349 16.6422 26.646 16.6355C27.5878 16.2193 27.7499 14.4791 27.4984 12.9084C27.4604 12.6732 27.4433 12.4888 27.3826 12.2387C27.365 11.95 27.236 11.6 27.1676 11.3504C26.4331 8.68719 25.1313 7.21147 23.7886 6.50867H23.7892ZM25.059 10.4649C23.9375 8.23448 22.1206 9.16474 22.1747 10.9816C22.2298 12.798 23.2157 13.9872 23.2157 13.9872H23.2218C23.466 14.3306 23.7202 14.499 23.7699 14.5299C23.8261 14.5729 23.9099 14.6204 24.0351 14.653C24.2044 14.6972 24.4872 14.7767 24.7227 14.7535C24.9069 14.7358 25.0568 14.6237 25.1357 14.5879C26.067 14.1605 26.1795 12.6914 25.059 10.4649ZM46.3321 7.33734C45.1548 6.72877 43.8079 6.53191 42.5059 6.77808C41.2421 7.0221 40.0875 7.66528 39.0873 8.49341C38.579 8.90716 38.1029 9.35896 37.663 9.84491C37.2086 10.3236 36.7967 10.8431 36.3848 11.3664C35.5732 12.4226 34.8337 13.5444 34.0855 14.6767C34.5529 13.3962 35.1612 12.1717 35.8991 11.0258C36.6379 9.87472 37.5273 8.79981 38.6048 7.90654C39.1507 7.4704 39.739 7.07676 40.3814 6.77532C41.0232 6.48161 41.7119 6.26299 42.4205 6.19453C43.8315 6.03884 45.2988 6.44131 46.3321 7.33734Z" fill="black"/>
</svg>
