
<svg width="32" height="32" viewBox="0 0 32 32" fill="none" xmlns="http://www.w3.org/2000/svg">
<path d="M3.60625 12.0625L4.19375 13.0875C4.7125 13.9937 5.5625 14.6625 6.56875 14.95L10.1875 15.9812C11.2625 16.2875 12 17.2688 12 18.3875V20.8813C12 21.5688 12.3875 22.1937 13 22.5C13.6125 22.8063 14 23.4312 14 24.1187V26.5562C14 27.5312 14.9312 28.2375 15.8687 27.9688C16.875 27.6813 17.6563 26.875 17.9125 25.8563L18.0875 25.1562C18.35 24.1 19.0375 23.1938 19.9813 22.6562L20.4875 22.3687C21.425 21.8375 22 20.8375 22 19.7625V19.2437C22 18.45 21.6812 17.6875 21.1187 17.125L20.875 16.8813C20.3125 16.3188 19.55 16 18.7563 16H16.0625C15.3687 16 14.6812 15.8188 14.075 15.475L11.9187 14.2437C11.65 14.0875 11.4438 13.8375 11.3438 13.5437C11.1437 12.9437 11.4125 12.2937 11.9812 12.0125L12.35 11.825C12.7625 11.6187 13.2437 11.5812 13.6812 11.7312L15.1313 12.2125C15.6438 12.3812 16.2063 12.1875 16.5 11.7437C16.7937 11.3062 16.7625 10.725 16.425 10.3188L15.575 9.3C14.95 8.55 14.9563 7.45625 15.5938 6.71875L16.575 5.575C17.125 4.93125 17.2125 4.0125 16.7938 3.28125L16.6437 3.01875C16.425 3.00625 16.2125 3 15.9937 3C10.1937 3 5.275 6.80625 3.60625 12.0625ZM29 16C29 13.7 28.4 11.5375 27.35 9.65625L25.75 10.3C24.7688 10.6938 24.2625 11.7875 24.5938 12.7875L25.65 15.9563C25.8687 16.6063 26.4 17.1 27.0625 17.2625L28.8813 17.7188C28.9563 17.1562 28.9937 16.5813 28.9937 16H29ZM0 16C0 11.7565 1.68571 7.68687 4.68629 4.68629C7.68687 1.68571 11.7565 0 16 0C20.2435 0 24.3131 1.68571 27.3137 4.68629C30.3143 7.68687 32 11.7565 32 16C32 20.2435 30.3143 24.3131 27.3137 27.3137C24.3131 30.3143 20.2435 32 16 32C11.7565 32 7.68687 30.3143 4.68629 27.3137C1.68571 24.3131 0 20.2435 0 16Z" fill="black"/>
</svg>
