
<svg width="19" height="19" viewBox="0 0 19 19" fill="none" xmlns="http://www.w3.org/2000/svg">
<path d="M15.4383 7.71762C15.4383 9.42069 14.8853 10.9939 13.9538 12.2703L18.6521 16.9713C19.116 17.4351 19.116 18.1884 18.6521 18.6522C18.1882 19.1159 17.4348 19.1159 16.9709 18.6522L12.2727 13.9511C10.996 14.8861 9.42253 15.4352 7.71913 15.4352C3.45505 15.4352 0 11.9809 0 7.71762C0 3.45438 3.45505 0 7.71913 0C11.9832 0 15.4383 3.45438 15.4383 7.71762ZM7.71913 13.0606C8.42091 13.0606 9.11583 12.9224 9.76419 12.6539C10.4126 12.3854 11.0017 11.9918 11.4979 11.4957C11.9941 10.9995 12.3878 10.4105 12.6563 9.76228C12.9249 9.11405 13.0631 8.41927 13.0631 7.71762C13.0631 7.01597 12.9249 6.32119 12.6563 5.67295C12.3878 5.02472 11.9941 4.43571 11.4979 3.93957C11.0017 3.44343 10.4126 3.04987 9.76419 2.78136C9.11583 2.51285 8.42091 2.37465 7.71913 2.37465C7.01734 2.37465 6.32243 2.51285 5.67406 2.78136C5.0257 3.04987 4.43658 3.44343 3.94034 3.93957C3.4441 4.43571 3.05047 5.02472 2.7819 5.67295C2.51334 6.32119 2.37512 7.01597 2.37512 7.71762C2.37512 8.41927 2.51334 9.11405 2.7819 9.76228C3.05047 10.4105 3.4441 10.9995 3.94034 11.4957C4.43658 11.9918 5.0257 12.3854 5.67406 12.6539C6.32243 12.9224 7.01734 13.0606 7.71913 13.0606Z" fill="#595959"/>
</svg>
